<?xml version="1.0" encoding="UTF-8" standalone="no"?>
<svg
   xmlns:dc="http://purl.org/dc/elements/1.1/"
   xmlns:cc="http://creativecommons.org/ns#"
   xmlns:rdf="http://www.w3.org/1999/02/22-rdf-syntax-ns#"
   xmlns:svg="http://www.w3.org/2000/svg"
   xmlns="http://www.w3.org/2000/svg"
   xmlns:sodipodi="http://sodipodi.sourceforge.net/DTD/sodipodi-0.dtd"
   xmlns:inkscape="http://www.inkscape.org/namespaces/inkscape"
   width="20"
   height="20"
   viewBox="0 0 20 20"
   version="1.1"
   id="svg6"
   sodipodi:docname="language.svg"
   inkscape:version="0.92.3 (2405546, 2018-03-11)">
  <metadata
     id="metadata12">
    <rdf:RDF>
      <cc:Work
         rdf:about="">
        <dc:format>image/svg+xml</dc:format>
        <dc:type
           rdf:resource="http://purl.org/dc/dcmitype/StillImage" />
        <dc:title>
    language
  </dc:title>
      </cc:Work>
    </rdf:RDF>
  </metadata>
  <defs
     id="defs10" />
  <sodipodi:namedview
     pagecolor="#ffffff"
     bordercolor="#666666"
     borderopacity="1"
     objecttolerance="10"
     gridtolerance="10"
     guidetolerance="10"
     inkscape:pageopacity="0"
     inkscape:pageshadow="2"
     inkscape:window-width="1920"
     inkscape:window-height="1027"
     id="namedview8"
     showgrid="false"
     inkscape:zoom="11.8"
     inkscape:cx="-0.55084746"
     inkscape:cy="16.779661"
     inkscape:window-x="-8"
     inkscape:window-y="-8"
     inkscape:window-maximized="1"
     inkscape:current-layer="svg6" />
  <title
     id="title2">
    language
  </title>
  <path
     d="M20 18h-1.44a.61.61 0 0 1-.4-.12.81.81 0 0 1-.23-.31L17 15h-5l-1 2.54a.77.77 0 0 1-.22.3.59.59 0 0 1-.4.14H9l4.55-11.47h1.89zm-3.53-4.31L14.89 9.5a11.62 11.62 0 0 1-.39-1.24q-.09.37-.19.69l-.19.56-1.58 4.19zm-6.3-1.58a13.43 13.43 0 0 1-2.91-1.41 11.46 11.46 0 0 0 2.81-5.37H12V4H7.31a4 4 0 0 0-.2-.56C6.87 2.79 6.6 2 6.6 2l-1.47.5s.4.89.6 1.5H0v1.33h2.15A11.23 11.23 0 0 0 5 10.7a17.19 17.19 0 0 1-5 2.1q.56.82.87 1.38a23.28 23.28 0 0 0 5.22-2.51 15.64 15.64 0 0 0 3.56 1.77zM3.63 5.33h4.91a8.11 8.11 0 0 1-2.45 4.45 9.11 9.11 0 0 1-2.46-4.45z"
     id="path4"
     style="fill:#ffffff;fill-opacity:1" />
</svg>
